<svg xmlns="http://www.w3.org/2000/svg" width="500" height="405" viewBox="0 0 500 405">
<g>
<path d="M 152.10,228.01 L 153.16,228.02 L 154.87,228.05 L 155.66,228.07 L 156.90,228.14 L 157.47,228.18 L 158.31,228.29 L 158.69,228.36 L 159.22,228.54 L 159.45,228.64 L 159.73,228.89 L 160.00,230.00 L 160.00,230.46 L 159.76,231.10 L 159.56,231.37 L 158.56,231.70 L 158.24,231.76 L 157.39,231.86 L 156.92,231.90 L 155.71,231.95 L 155.06,231.97 L 153.44,231.99 L 150.50,232.00 L 141.00,232.00 L 141.00,244.00 L 150.48,244.00 L 152.11,244.01 L 152.88,244.02 L 154.13,244.05 L 154.71,244.08 L 155.63,244.15 L 156.05,244.19 L 156.69,244.31 L 157.26,244.44 L 157.77,244.91 L 158.00,246.00 L 158.00,246.46 L 157.77,247.09 L 157.59,247.36 L 156.69,247.69 L 156.40,247.76 L 155.63,247.85 L 155.21,247.89 L 154.13,247.95 L 153.55,247.97 L 152.11,247.99 L 149.50,248.00 L 141.00,248.00 L 141.00,260.29 L 148.27,259.74 L 149.44,259.65 L 151.50,259.54 L 152.49,259.49 L 154.20,259.47 L 155.02,259.47 L 156.40,259.53 L 157.06,259.58 L 158.14,259.74 L 158.64,259.84 L 159.44,260.10 L 159.80,260.25 L 160.32,260.61 L 161.00,262.12 L 161.00,262.55 L 160.68,263.14 L 160.55,263.27 L 160.13,263.48 L 159.88,263.57 L 159.16,263.71 L 158.75,263.77 L 157.67,263.86 L 157.07,263.90 L 155.55,263.95 L 154.73,263.97 L 152.70,263.99 L 149.00,264.00 L 137.00,264.00 L 137.00,228.00 L 149.85,228.00 M 183.40,228.06 L 183.70,228.20 L 184.27,228.94 L 185.13,230.68 L 185.30,231.11 L 185.72,232.17 L 185.94,232.74 L 186.44,234.03 L 186.95,235.38 L 188.15,238.58 L 189.40,241.90 L 192.11,249.28 L 192.76,251.08 L 193.98,254.44 L 194.56,256.06 L 195.54,258.82 L 195.76,259.45 L 196.14,260.55 L 196.32,261.07 L 196.60,261.91 L 196.73,262.29 L 196.90,262.82 L 197.00,263.22 L 197.00,263.44 L 196.47,263.77 L 195.20,264.00 L 194.84,264.00 L 194.08,263.32 L 193.88,263.08 L 193.44,262.37 L 193.22,261.97 L 192.71,260.91 L 192.45,260.34 L 191.85,258.89 L 191.54,258.12 L 190.84,256.24 L 190.47,255.24 L 189.63,252.88 L 188.21,248.75 L 187.50,246.65 L 186.15,242.83 L 185.51,241.01 L 184.39,237.98 L 184.13,237.29 L 183.68,236.11 L 183.46,235.56 L 183.11,234.70 L 182.95,234.32 L 182.71,233.81 L 182.50,233.50 L 182.46,233.50 L 182.28,233.81 L 182.18,234.02 L 181.88,234.70 L 181.72,235.09 L 181.31,236.11 L 181.09,236.66 L 180.59,237.98 L 180.07,239.36 L 178.82,242.83 L 176.76,248.75 L 176.25,250.25 L 175.34,252.84 L 174.90,254.08 L 174.14,256.18 L 173.77,257.18 L 173.12,258.84 L 172.80,259.61 L 172.25,260.86 L 171.99,261.44 L 171.52,262.33 L 171.29,262.73 L 170.88,263.30 L 169.77,264.00 L 169.29,264.00 L 168.52,263.78 L 168.20,263.64 L 168.01,263.25 L 168.01,263.20 L 168.14,262.75 L 168.23,262.48 L 168.51,261.62 L 168.67,261.14 L 169.09,259.92 L 169.32,259.27 L 169.86,257.73 L 170.43,256.12 L 171.86,252.16 L 174.30,245.51 L 175.12,243.27 L 176.57,239.49 L 177.26,237.71 L 178.46,234.82 L 179.03,233.48 L 180.03,231.43 L 180.50,230.50 L 181.33,229.22 L 181.73,228.68 L 182.44,228.13 L 182.78,227.94 M 221.10,228.01 L 222.16,228.02 L 223.87,228.05 L 224.66,228.07 L 225.90,228.14 L 226.47,228.18 L 227.31,228.29 L 227.69,228.36 L 228.22,228.54 L 228.45,228.64 L 228.73,228.89 L 229.00,230.00 L 229.00,230.46 L 228.76,231.10 L 228.56,231.37 L 227.56,231.70 L 227.24,231.76 L 226.39,231.86 L 225.92,231.90 L 224.71,231.95 L 224.06,231.97 L 222.44,231.99 L 219.50,232.00 L 210.00,232.00 L 210.00,244.00 L 219.48,244.00 L 221.11,244.01 L 221.88,244.02 L 223.13,244.05 L 223.71,244.08 L 224.63,244.15 L 225.05,244.19 L 225.69,244.31 L 226.26,244.44 L 226.77,244.91 L 227.00,246.00 L 227.00,246.46 L 226.77,247.09 L 226.59,247.36 L 225.69,247.69 L 225.40,247.76 L 224.63,247.85 L 224.21,247.89 L 223.13,247.95 L 222.55,247.97 L 221.11,247.99 L 218.50,248.00 L 210.00,248.00 L 210.00,260.28 L 218.32,259.60 L 219.49,259.51 L 221.50,259.38 L 222.46,259.32 L 224.08,259.28 L 224.84,259.28 L 226.11,259.33 L 226.71,259.37 L 227.66,259.54 L 228.09,259.63 L 228.76,259.90 L 229.06,260.05 L 229.49,260.45 L 230.00,262.11 L 230.00,262.55 L 229.69,263.14 L 229.56,263.27 L 229.13,263.48 L 228.88,263.57 L 228.17,263.71 L 227.76,263.77 L 226.68,263.86 L 226.08,263.90 L 224.56,263.95 L 223.74,263.97 L 221.70,263.99 L 218.00,264.00 L 206.00,264.00 L 206.00,228.00 L 218.85,228.00 M 253.51,228.38 L 255.11,228.64 L 257.68,229.57 L 258.87,230.10 L 260.67,231.61 L 262.59,234.57 L 263.06,235.68 L 263.50,237.82 L 263.64,238.88 L 263.43,240.94 L 263.25,241.97 L 262.39,243.98 L 260.35,247.00 L 257.87,249.95 L 262.41,256.97 L 262.97,257.84 L 263.89,259.27 L 264.32,259.93 L 264.97,261.00 L 265.27,261.49 L 265.68,262.24 L 265.86,262.59 L 266.05,263.09 L 266.11,263.31 L 266.08,263.60 L 266.04,263.73 L 265.82,263.88 L 264.47,264.00 L 263.98,264.00 L 263.05,263.69 L 262.58,263.47 L 261.59,262.60 L 261.06,262.07 L 259.82,260.45 L 259.49,259.99 L 258.75,258.90 L 257.50,257.00 L 256.98,256.19 L 256.10,254.84 L 255.68,254.20 L 254.95,253.17 L 254.61,252.69 L 254.00,251.94 L 253.71,251.59 L 253.16,251.07 L 252.63,250.60 L 251.54,250.18 L 249.51,250.00 L 246.00,250.00 L 246.00,257.79 L 245.99,259.12 L 245.98,259.74 L 245.94,260.77 L 245.90,261.72 L 245.68,262.88 L 245.54,263.35 L 245.08,263.80 L 244.00,264.00 L 243.52,264.00 L 242.88,263.62 L 242.74,263.46 L 242.52,262.88 L 242.42,262.53 L 242.28,261.50 L 242.21,260.92 L 242.12,259.31 L 242.09,258.43 L 242.04,256.12 L 242.02,254.88 L 242.01,251.75 L 242.00,250.07 L 242.00,246.00 L 242.00,228.00 L 250.09,228.00 M 293.10,228.01 L 294.16,228.02 L 295.87,228.05 L 296.66,228.07 L 297.90,228.14 L 298.47,228.18 L 299.31,228.29 L 299.69,228.36 L 300.22,228.54 L 300.45,228.64 L 300.73,228.89 L 301.00,230.00 L 301.00,230.46 L 300.76,231.10 L 300.56,231.37 L 299.56,231.70 L 299.24,231.76 L 298.39,231.86 L 297.92,231.90 L 296.71,231.95 L 296.06,231.97 L 294.44,231.99 L 291.50,232.00 L 282.00,232.00 L 282.00,244.00 L 291.48,244.00 L 293.11,244.01 L 293.88,244.02 L 295.13,244.05 L 295.71,244.08 L 296.63,244.15 L 297.05,244.19 L 297.69,244.31 L 298.26,244.44 L 298.77,244.91 L 299.00,246.00 L 299.00,246.46 L 298.77,247.09 L 298.59,247.36 L 297.69,247.69 L 297.40,247.76 L 296.63,247.85 L 296.21,247.89 L 295.13,247.95 L 294.55,247.97 L 293.11,247.99 L 290.50,248.00 L 282.00,248.00 L 282.00,260.07 L 291.46,259.83 L 292.70,259.80 L 294.78,259.77 L 295.76,259.76 L 297.36,259.78 L 298.11,259.79 L 299.29,259.88 L 299.83,259.93 L 300.63,260.09 L 300.99,260.19 L 301.47,260.44 L 301.67,260.58 L 301.86,260.94 L 301.65,262.46 L 301.53,262.77 L 300.89,263.23 L 300.47,263.44 L 298.96,263.70 L 298.52,263.76 L 297.40,263.85 L 296.80,263.88 L 295.35,263.94 L 294.58,263.96 L 292.75,263.99 L 289.53,264.00 L 278.00,264.00 L 278.00,228.00 L 290.85,228.00 M 325.15,228.20 L 326.70,228.32 L 329.07,228.70 L 330.14,228.91 L 331.60,229.52 L 332.21,229.86 L 332.79,230.72 L 332.71,232.32 L 332.59,232.64 L 332.26,233.03 L 332.07,233.19 L 331.47,233.27 L 331.11,233.27 L 330.03,233.02 L 327.65,232.29 L 326.70,231.98 L 325.24,231.58 L 324.56,231.42 L 323.46,231.33 L 322.93,231.32 L 321.95,231.53 L 320.33,232.17 L 319.53,232.55 L 318.36,233.64 L 317.85,234.23 L 317.29,235.58 L 317.09,236.28 L 317.20,237.71 L 318.17,239.72 L 318.36,239.94 L 319.09,240.52 L 319.51,240.83 L 320.62,241.52 L 324.62,243.59 L 326.06,244.23 L 328.52,245.74 L 329.67,246.52 L 331.47,248.24 L 332.28,249.12 L 333.34,250.96 L 334.00,253.73 L 334.00,254.57 L 333.52,256.39 L 333.21,257.30 L 332.23,259.08 L 331.70,259.94 L 330.40,261.39 L 328.29,262.91 L 327.46,263.29 L 325.25,263.72 L 324.08,263.89 L 321.48,263.91 L 320.17,263.87 L 317.58,263.48 L 316.32,263.24 L 314.14,262.46 L 313.54,262.20 L 312.64,261.71 L 312.24,261.46 L 311.71,260.98 L 311.49,260.73 L 311.30,260.23 L 311.39,259.42 L 311.56,258.99 L 311.82,258.17 L 312.00,257.39 L 312.00,257.33 L 312.23,257.34 L 312.38,257.36 L 312.87,257.53 L 314.95,258.47 L 316.10,259.07 L 318.73,259.75 L 320.06,260.01 L 322.71,260.03 L 323.99,259.97 L 326.18,259.36 L 326.68,259.17 L 327.51,258.68 L 328.44,257.78 L 328.87,257.17 L 329.54,255.74 L 330.00,253.95 L 330.00,253.40 L 329.35,252.15 L 328.93,251.50 L 327.55,250.17 L 326.79,249.50 L 324.87,248.23 L 321.54,246.56 L 320.57,246.16 L 318.87,245.31 L 318.06,244.87 L 316.67,243.95 L 316.02,243.48 L 314.95,242.49 L 314.46,241.99 L 313.70,240.92 L 313.37,240.38 L 312.93,239.24 L 312.75,238.67 L 312.62,237.45 L 312.60,236.84 L 312.79,235.55 L 313.42,233.53 L 313.90,232.39 L 315.07,230.70 L 315.71,229.94 L 317.36,228.96 L 318.27,228.55 L 320.62,228.18 L 321.26,228.12 L 322.71,228.10 M 358.19,228.01 L 359.22,228.02 L 360.89,228.05 L 361.67,228.07 L 362.89,228.14 L 363.45,228.18 L 364.29,228.29 L 364.67,228.36 L 365.20,228.53 L 365.43,228.63 L 365.71,228.88 L 366.00,229.95 L 366.00,230.35 L 365.81,230.94 L 365.67,231.21 L 365.10,231.58 L 364.76,231.74 L 363.66,231.96 L 361.27,232.20 L 356.54,232.50 L 356.86,240.74 L 356.93,242.76 L 356.98,246.47 L 356.98,248.26 L 356.89,251.50 L 356.83,253.06 L 356.61,255.78 L 356.48,257.07 L 356.14,259.23 L 355.95,260.23 L 355.49,261.77 L 355.25,262.47 L 354.69,263.36 L 354.40,263.71 L 353.75,263.90 L 353.41,263.90 L 352.67,263.33 L 352.62,263.29 L 352.53,262.89 L 352.49,262.64 L 352.41,261.86 L 352.37,261.44 L 352.29,260.33 L 352.26,259.75 L 352.20,258.36 L 352.14,256.91 L 352.05,253.34 L 352.00,247.33 L 352.00,232.00 L 346.59,232.00 L 344.89,231.70 L 344.11,231.52 L 343.01,230.93 L 342.55,230.61 L 342.21,229.84 L 342.74,228.60 L 342.78,228.56 L 343.09,228.48 L 343.28,228.44 L 343.86,228.37 L 344.51,228.29 L 346.49,228.18 L 347.57,228.12 L 350.22,228.05 L 354.67,228.00 L 355.99,228.00 M 246.00,232.00 L 246.00,239.77 L 246.05,241.53 L 246.07,242.38 L 246.17,243.83 L 246.22,244.50 L 246.35,245.48 L 246.57,246.24 L 246.72,246.39 L 247.30,246.56 L 247.63,246.62 L 248.51,246.64 L 249.43,246.63 L 251.74,246.24 L 252.91,246.00 L 255.11,245.28 L 255.61,245.09 L 256.46,244.67 L 256.85,244.46 L 257.40,244.01 L 257.99,243.43 L 258.73,241.82 L 259.02,240.96 L 259.17,239.06 L 259.17,238.10 L 258.73,236.25 L 257.41,233.90 L 257.10,233.56 L 256.35,233.03 L 255.95,232.78 L 254.97,232.44 L 254.45,232.28 L 253.17,232.10 L 250.85,232.00 M 188.69,75.11 L 189.32,75.18 L 190.29,75.47 L 190.75,75.64 L 191.48,76.15 L 192.44,77.22 L 192.92,77.91 L 193.54,79.13 L 193.79,79.70 L 193.94,80.64 L 193.95,81.07 L 193.63,81.64 L 192.62,82.00 L 192.39,82.00 L 191.96,82.26 L 191.75,82.43 L 191.39,82.97 L 191.04,83.56 L 190.61,85.19 L 190.45,86.02 L 190.49,87.61 L 190.54,87.97 L 190.74,88.57 L 191.24,89.18 L 191.86,89.59 L 193.82,90.36 L 194.88,90.73 L 197.38,91.36 L 198.65,91.65 L 201.26,92.04 L 204.80,92.25 L 205.74,92.23 L 207.09,92.28 L 207.69,92.34 L 208.53,92.61 L 208.90,92.79 L 209.42,93.37 L 210.08,94.71 L 210.28,95.24 L 210.49,96.06 L 210.56,96.44 L 210.48,97.05 L 210.40,97.35 L 210.01,97.87 L 209.03,98.69 L 208.47,99.08 L 207.60,100.12 L 207.00,101.56 L 207.00,101.95 L 206.88,102.08 L 206.92,101.94 L 206.87,101.53 L 206.68,100.58 L 206.47,99.91 L 206.06,98.74 L 205.83,98.33 L 205.72,98.30 L 205.48,98.35 L 205.33,98.55 L 204.99,99.05 L 204.76,99.46 L 204.30,101.02 L 204.62,101.77 L 205.10,102.06 L 205.93,102.52 L 206.20,102.58 L 206.40,102.58 L 205.00,103.00 L 204.37,103.00 L 203.59,103.11 L 203.28,103.20 L 203.13,103.58 L 203.14,103.82 L 203.64,104.61 L 205.11,106.42 L 205.70,107.09 L 206.97,108.00 L 207.27,108.17 L 207.81,108.37 L 208.45,108.38 L 208.79,108.25 L 209.70,108.50 L 210.96,109.45 L 211.31,109.88 L 212.68,110.55 L 215.01,111.00 L 215.39,111.00 L 216.49,111.13 L 217.08,111.22 L 218.48,111.49 L 222.95,112.67 L 223.75,112.93 L 225.35,113.66 L 226.15,114.06 L 227.69,115.02 L 229.22,116.03 L 231.88,118.51 L 232.49,119.14 L 233.56,120.47 L 234.06,121.13 L 234.86,122.46 L 235.22,123.13 L 235.70,124.41 L 236.00,126.22 L 236.00,127.03 L 236.27,128.20 L 236.35,128.44 L 236.56,128.73 L 236.91,128.83 L 236.97,128.81 L 237.37,128.42 L 237.60,128.17 L 238.32,127.36 L 238.71,126.91 L 239.71,125.74 L 240.24,125.11 L 241.47,123.61 L 242.12,122.82 L 243.56,121.05 L 244.31,120.13 L 245.91,118.13 L 251.17,111.51 L 253.00,109.18 L 256.47,104.89 L 257.31,103.87 L 258.89,101.98 L 259.66,101.06 L 261.06,99.43 L 261.74,98.64 L 262.93,97.30 L 263.49,96.67 L 264.43,95.68 L 264.86,95.23 L 265.51,94.63 L 266.10,94.22 L 266.23,94.19 L 266.82,94.57 L 267.17,94.82 L 268.19,95.74 L 268.75,96.27 L 270.20,97.73 L 270.97,98.52 L 272.83,100.51 L 273.81,101.56 L 276.06,104.06 L 277.24,105.38 L 279.89,108.38 L 281.26,109.94 L 284.29,113.43 L 289.24,119.21 L 292.20,122.68 L 298.26,129.78 L 299.75,131.53 L 302.68,134.95 L 304.12,136.64 L 306.88,139.86 L 308.23,141.44 L 310.73,144.36 L 311.95,145.78 L 314.12,148.32 L 315.16,149.53 L 316.92,151.58 L 319.02,154.00 L 319.58,154.65 L 321.11,156.44 L 321.94,157.40 L 323.93,159.74 L 324.97,160.97 L 327.33,163.76 L 328.55,165.20 L 331.21,168.35 L 332.56,169.96 L 335.43,173.36 L 336.88,175.09 L 339.88,178.66 L 348.96,189.50 L 351.95,193.07 L 358.15,200.50 L 361.24,204.19 L 367.13,211.22 L 368.56,212.92 L 371.22,216.10 L 372.52,217.64 L 374.87,220.44 L 376.00,221.78 L 377.95,224.10 L 380.34,226.93 L 381.67,228.50 L 384.09,231.46 L 385.24,232.88 L 387.16,235.33 L 387.60,235.90 L 388.34,236.90 L 388.69,237.37 L 389.24,238.14 L 389.48,238.50 L 389.80,239.02 L 390.00,239.48 L 390.00,239.89 L 389.63,240.72 L 389.40,241.13 L 388.69,241.85 L 388.30,242.19 L 387.40,242.68 L 385.98,243.00 L 385.87,243.00 L 385.46,242.82 L 385.23,242.70 L 384.61,242.30 L 383.94,241.85 L 382.07,240.40 L 381.07,239.60 L 378.72,237.59 L 374.93,234.16 L 372.09,231.50 L 366.94,226.67 L 364.44,224.33 L 359.92,220.10 L 357.74,218.06 L 353.80,214.39 L 351.89,212.62 L 348.47,209.45 L 346.82,207.93 L 343.85,205.22 L 342.42,203.92 L 339.85,201.62 L 338.61,200.51 L 336.38,198.57 L 335.31,197.64 L 333.36,196.00 L 332.41,195.22 L 330.68,193.84 L 329.83,193.18 L 328.26,192.02 L 326.71,190.89 L 323.84,189.05 L 322.40,188.17 L 319.39,186.53 L 314.18,183.84 L 299.77,176.50 L 293.83,164.03 L 293.02,162.32 L 291.50,159.16 L 290.77,157.65 L 289.54,155.12 L 289.25,154.54 L 288.76,153.55 L 288.53,153.08 L 288.15,152.33 L 287.98,152.00 L 287.74,151.54 L 287.55,151.22 L 287.53,151.19 L 287.14,151.43 L 286.89,151.59 L 286.09,152.16 L 285.65,152.48 L 284.49,153.35 L 283.86,153.82 L 282.38,154.96 L 281.61,155.56 L 279.86,156.93 L 278.95,157.64 L 276.98,159.20 L 270.44,164.45 L 269.46,165.24 L 267.67,166.68 L 266.80,167.39 L 265.22,168.66 L 263.68,169.89 L 261.17,171.87 L 259.99,172.79 L 258.11,174.21 L 257.24,174.85 L 255.87,175.77 L 255.24,176.18 L 254.28,176.68 L 253.83,176.89 L 253.15,177.05 L 251.58,176.63 L 251.10,176.31 L 250.45,175.59 L 250.17,175.16 L 249.86,173.79 L 249.80,173.38 L 249.73,172.34 L 249.71,171.77 L 249.69,170.35 L 249.69,169.59 L 249.72,167.74 L 249.81,164.37 L 249.85,162.87 L 249.97,159.93 L 250.03,158.49 L 250.18,155.88 L 250.25,154.65 L 250.41,152.68 L 250.64,150.75 L 250.78,149.99 L 250.72,148.81 L 250.69,148.56 L 250.53,148.22 L 250.20,148.00 L 250.14,148.00 L 249.86,148.17 L 249.70,148.28 L 249.25,148.66 L 248.76,149.08 L 247.36,150.45 L 246.61,151.20 L 244.81,153.10 L 241.87,156.33 L 241.37,156.90 L 240.12,158.31 L 239.46,159.04 L 237.95,160.73 L 237.16,161.61 L 235.44,163.52 L 234.57,164.49 L 232.70,166.56 L 230.81,168.66 L 226.82,173.06 L 221.00,179.46 L 219.14,181.50 L 215.44,185.56 L 213.63,187.56 L 210.29,191.23 L 209.50,192.10 L 208.05,193.69 L 207.35,194.46 L 206.12,195.82 L 205.54,196.46 L 204.58,197.52 L 203.50,198.71 L 202.68,199.62 L 201.40,200.91 L 200.81,201.47 L 199.86,202.14 L 199.41,202.41 L 198.61,202.56 L 197.39,202.33 L 197.24,202.27 L 196.82,201.97 L 196.59,201.79 L 196.00,201.26 L 195.39,200.67 L 193.79,198.95 L 192.94,198.02 L 191.05,195.75 L 188.09,192.00 L 187.10,190.69 L 185.24,188.31 L 184.34,187.18 L 182.79,185.29 L 182.07,184.43 L 181.00,183.25 L 180.77,183.01 L 180.43,182.69 L 180.13,182.50 L 180.08,182.50 L 179.53,182.97 L 179.19,183.28 L 178.10,184.31 L 177.50,184.90 L 175.94,186.44 L 175.11,187.27 L 173.15,189.25 L 172.12,190.30 L 169.80,192.66 L 168.61,193.88 L 166.01,196.57 L 164.68,197.94 L 161.85,200.88 L 157.43,205.49 L 154.42,208.66 L 148.32,215.04 L 146.82,216.62 L 143.90,219.67 L 142.46,221.18 L 139.73,224.04 L 138.40,225.44 L 135.94,228.02 L 134.75,229.26 L 132.63,231.48 L 131.63,232.53 L 129.94,234.29 L 127.98,236.34 L 120.46,244.20 L 118.11,242.29 L 117.54,241.83 L 116.82,241.15 L 116.52,240.83 L 116.30,240.22 L 116.25,239.89 L 116.50,239.07 L 117.35,237.30 L 117.46,237.08 L 117.87,236.37 L 118.10,235.97 L 118.74,234.93 L 119.09,234.37 L 119.92,233.03 L 120.36,232.33 L 121.36,230.75 L 122.40,229.13 L 124.83,225.37 L 128.78,219.36 L 129.46,218.33 L 130.99,216.03 L 131.77,214.83 L 133.48,212.25 L 135.23,209.61 L 139.01,203.87 L 140.91,200.98 L 144.67,195.27 L 145.59,193.88 L 147.34,191.22 L 149.78,187.50 L 150.96,185.71 L 153.11,182.43 L 154.16,180.84 L 156.06,177.95 L 156.98,176.55 L 158.65,174.02 L 159.46,172.80 L 160.91,170.62 L 161.62,169.57 L 162.87,167.70 L 163.48,166.81 L 164.55,165.23 L 165.07,164.48 L 165.99,163.17 L 166.43,162.55 L 167.20,161.48 L 167.94,160.47 L 169.06,159.08 L 169.58,158.47 L 170.36,157.73 L 170.72,157.42 L 171.31,157.13 L 172.13,157.00 L 172.39,157.00 L 173.14,157.24 L 173.56,157.40 L 174.63,157.96 L 175.21,158.28 L 176.59,159.15 L 177.31,159.63 L 178.99,160.81 L 179.86,161.43 L 181.83,162.91 L 182.85,163.69 L 185.09,165.46 L 186.25,166.38 L 188.77,168.44 L 192.85,171.85 L 193.51,172.41 L 194.64,173.34 L 195.18,173.79 L 196.11,174.51 L 196.99,175.18 L 198.23,175.94 L 198.79,176.24 L 199.56,176.34 L 200.43,175.86 L 200.59,175.69 L 201.19,174.97 L 201.54,174.55 L 202.49,173.38 L 203.01,172.74 L 204.25,171.19 L 204.91,170.37 L 206.40,168.50 L 207.16,167.54 L 208.84,165.43 L 209.69,164.36 L 211.49,162.08 L 213.32,159.77 L 217.13,154.93 L 219.03,152.51 L 222.66,147.88 L 223.53,146.76 L 225.17,144.66 L 225.97,143.64 L 227.41,141.78 L 228.10,140.89 L 229.30,139.34 L 229.86,138.61 L 230.74,137.45 L 231.14,136.92 L 231.67,136.21 L 232.00,135.72 L 232.00,135.66 L 231.66,135.57 L 231.45,135.52 L 230.75,135.46 L 227.75,135.40 L 226.51,135.43 L 224.10,135.09 L 222.92,134.86 L 220.65,134.06 L 219.54,133.61 L 217.47,132.40 L 216.47,131.75 L 214.67,130.19 L 213.80,129.37 L 212.32,127.52 L 211.63,126.57 L 210.54,124.48 L 210.05,123.42 L 209.40,121.16 L 209.00,117.63 L 209.00,116.88 L 208.75,115.49 L 208.59,114.82 L 208.07,113.69 L 207.78,113.17 L 207.08,112.46 L 205.89,112.00 L 205.79,112.00 L 205.46,112.47 L 205.27,112.78 L 204.80,113.76 L 204.55,114.31 L 204.00,115.67 L 203.16,118.00 L 202.74,119.23 L 202.20,121.02 L 201.97,121.81 L 201.79,122.85 L 201.75,123.29 L 201.93,123.76 L 202.57,124.00 L 203.09,124.00 L 203.68,124.28 L 203.90,124.47 L 203.87,125.16 L 203.78,125.56 L 203.12,126.69 L 201.42,128.91 L 200.62,129.86 L 199.58,131.89 L 199.03,134.74 L 199.10,135.88 L 199.13,137.48 L 199.12,138.19 L 198.93,139.08 L 198.80,139.45 L 198.31,139.82 L 197.17,140.00 L 196.53,140.00 L 195.59,140.19 L 195.18,140.32 L 194.70,140.73 L 194.52,140.96 L 194.53,141.57 L 195.13,142.66 L 195.54,143.15 L 195.74,143.70 L 195.13,144.00 L 194.97,144.00 L 194.53,144.34 L 194.30,144.56 L 193.75,145.26 L 191.99,148.29 L 191.36,149.64 L 189.83,151.77 L 189.02,152.74 L 187.07,154.17 L 186.04,154.79 L 183.60,155.55 L 179.30,156.00 L 177.90,156.00 L 174.98,155.36 L 173.53,154.95 L 170.78,153.65 L 169.47,152.94 L 167.29,151.19 L 166.80,150.73 L 165.99,149.77 L 165.08,148.28 L 164.66,147.36 L 164.21,145.05 L 164.04,143.84 L 164.07,141.26 L 164.15,139.97 L 164.64,137.51 L 165.89,134.42 L 166.39,133.59 L 167.97,132.01 L 168.83,131.25 L 170.86,129.96 L 171.91,129.37 L 174.10,128.53 L 177.20,128.00 L 177.86,128.00 L 179.25,127.65 L 180.80,126.80 L 181.03,126.57 L 181.38,126.29 L 181.54,126.19 L 181.75,126.18 L 181.84,126.21 L 181.94,126.48 L 182.00,127.19 L 182.00,127.52 L 182.32,128.19 L 182.53,128.52 L 183.16,129.09 L 183.50,129.36 L 184.31,129.75 L 185.58,130.00 L 185.70,130.00 L 185.88,129.24 L 186.00,127.41 L 186.00,126.53 L 185.51,125.32 L 184.00,124.29 L 183.45,124.15 L 182.59,123.49 L 182.00,122.31 L 182.00,121.98 L 181.75,121.23 L 181.59,120.85 L 181.07,120.05 L 180.49,119.24 L 178.79,117.66 L 177.88,116.91 L 175.90,115.77 L 175.41,115.53 L 174.47,115.21 L 173.17,115.00 L 172.56,115.00 L 171.63,114.87 L 171.21,114.78 L 170.56,114.39 L 170.26,114.16 L 169.77,113.43 L 169.10,111.85 L 168.71,110.73 L 168.25,107.97 L 168.08,106.53 L 168.06,103.48 L 168.10,101.95 L 168.50,99.02 L 169.55,95.23 L 170.02,94.11 L 171.16,92.08 L 171.76,91.10 L 173.24,89.31 L 174.02,88.43 L 175.89,86.78 L 179.23,84.38 L 180.07,83.85 L 181.20,83.03 L 181.69,82.65 L 182.19,81.97 L 182.38,81.63 L 182.39,80.88 L 181.97,79.42 L 181.63,78.52 L 181.39,77.21 L 181.36,76.63 L 181.83,75.86 L 182.16,75.53 L 183.47,75.18 L 186.50,75.00 L 187.35,75.00 M 175.60,131.00 L 174.36,131.25 L 173.74,131.42 L 172.53,131.97 L 171.34,132.58 L 169.25,134.49 L 168.28,135.54 L 166.90,138.03 L 166.61,138.67 L 166.24,139.99 L 166.00,142.00 L 166.00,143.14 L 166.55,145.25 L 166.90,146.28 L 168.06,148.13 L 168.70,149.02 L 170.32,150.54 L 171.17,151.25 L 173.12,152.36 L 174.12,152.86 L 176.26,153.50 L 177.34,153.76 L 179.53,153.85 L 180.61,153.83 L 182.71,153.32 L 183.74,152.98 L 185.62,151.78 L 186.35,151.22 L 187.56,150.17 L 188.11,149.66 L 188.95,148.71 L 189.33,148.26 L 189.81,147.41 L 190.01,147.01 L 190.13,146.26 L 190.14,145.90 L 189.90,145.25 L 189.73,144.93 L 189.13,144.37 L 188.79,144.10 L 187.82,143.62 L 185.98,142.99 L 184.76,142.67 L 183.00,142.37 L 182.22,142.29 L 181.23,142.55 L 180.82,142.76 L 180.46,143.64 L 180.45,145.77 L 180.51,146.27 L 180.69,147.03 L 180.80,147.37 L 181.11,147.83 L 181.28,148.02 L 181.74,148.21 L 182.63,148.23 L 182.98,148.18 L 183.38,148.18 L 183.53,148.19 L 183.54,148.34 L 183.49,148.43 L 183.08,148.73 L 182.01,149.39 L 181.31,149.80 L 180.18,150.24 L 179.67,150.40 L 178.96,150.35 L 178.67,150.27 L 178.43,149.76 L 178.65,148.47 L 178.82,148.04 L 178.66,147.41 L 177.82,147.00 L 177.38,147.00 L 176.76,146.36 L 176.50,145.96 L 176.27,144.73 L 176.20,144.08 L 176.38,142.57 L 177.14,140.32 L 177.37,139.87 L 177.78,139.27 L 177.98,139.02 L 178.39,138.78 L 178.61,138.70 L 179.11,138.79 L 180.07,139.28 L 180.44,139.50 L 181.06,139.75 L 181.36,139.84 L 181.94,139.81 L 182.23,139.75 L 182.85,139.42 L 183.94,138.55 L 184.59,137.97 L 185.41,136.73 L 185.74,136.12 L 185.92,134.92 L 185.93,134.34 L 185.47,133.29 L 184.07,132.04 L 183.40,131.68 L 182.46,131.26 L 182.04,131.10 L 181.53,131.12 L 181.31,131.18 L 181.10,131.66 L 181.00,132.94 L 181.00,133.47 L 180.71,134.49 L 180.00,135.50 L 179.86,135.59 L 179.60,135.55 L 179.48,135.50 L 179.29,135.21 L 179.00,133.56 L 179.00,133.03 L 178.89,132.26 L 178.81,131.92 L 178.48,131.48 L 178.28,131.29 L 177.63,131.10 L 176.22,131.00 M 191.59,124.50 L 191.47,124.59 L 191.28,125.02 L 191.19,125.27 L 191.07,125.99 L 191.00,127.36 L 191.00,128.31 L 190.65,129.93 L 190.55,130.28 L 190.28,130.80 L 189.82,131.23 L 189.48,131.34 L 189.17,132.01 L 189.32,133.39 L 189.50,133.86 L 190.14,134.41 L 190.48,134.63 L 191.22,134.68 L 191.56,134.65 L 192.07,134.24 L 192.27,133.98 L 192.25,133.12 L 192.17,132.77 L 192.35,132.32 L 192.48,132.14 L 192.94,132.03 L 193.19,132.02 L 193.75,132.26 L 194.51,133.02 L 194.72,133.35 L 195.25,133.60 L 195.52,133.65 L 196.07,133.41 L 196.33,133.24 L 196.73,132.62 L 197.00,131.37 L 197.00,130.85 L 196.52,130.38 L 195.00,130.50 L 194.58,130.63 L 193.97,130.72 L 193.70,130.72 L 193.36,130.47 L 193.22,130.30 L 193.07,129.65 L 193.00,128.13 L 193.00,127.30 L 192.71,125.82 L 192.62,125.49 L 192.39,124.98 L 192.00,124.50 L 191.85,124.41 M 217.88,113.96 L 217.60,114.02 L 217.23,114.29 L 217.00,114.96 L 217.00,115.09 L 217.28,115.55 L 217.45,115.81 L 218.03,116.45 L 220.50,118.71 L 221.47,119.48 L 222.76,120.64 L 223.30,121.18 L 223.77,122.03 L 223.92,122.44 L 223.67,123.22 L 222.58,124.56 L 222.27,124.87 L 221.69,125.17 L 221.38,125.25 L 220.65,125.04 L 220.24,124.86 L 219.13,124.04 L 216.83,122.02 L 216.21,121.45 L 215.14,120.51 L 214.63,120.07 L 213.78,119.38 L 213.38,119.07 L 212.73,118.62 L 212.42,118.43 L 211.97,118.23 L 211.76,118.16 L 211.49,118.21 L 211.37,118.26 L 211.27,118.54 L 211.24,118.71 L 211.30,119.22 L 211.57,120.25 L 212.00,121.64 L 212.77,123.72 L 213.16,124.67 L 214.03,126.14 L 214.50,126.84 L 215.72,128.07 L 218.21,130.06 L 219.13,130.72 L 220.58,131.65 L 221.27,132.06 L 222.51,132.53 L 223.13,132.72 L 224.45,132.83 L 226.85,132.70 L 228.05,132.57 L 230.37,131.92 L 230.90,131.74 L 231.79,131.34 L 232.19,131.13 L 232.71,130.71 L 233.03,130.40 L 233.43,129.63 L 233.59,129.22 L 233.69,128.30 L 233.70,127.82 L 233.51,126.78 L 233.38,126.25 L 232.92,125.11 L 232.39,123.97 L 230.57,121.54 L 226.82,117.95 L 225.66,117.03 L 223.33,115.62 L 222.19,115.00 L 220.17,114.24 L 219.70,114.10 L 218.89,113.95 L 218.50,113.91 M 201.04,109.48 L 200.22,109.90 L 198.82,110.76 L 198.16,111.18 L 197.08,112.07 L 196.58,112.52 L 195.80,113.48 L 195.44,113.97 L 194.95,115.03 L 194.74,115.58 L 194.53,116.78 L 194.45,117.40 L 194.50,118.78 L 194.55,119.49 L 194.85,121.09 L 195.55,123.75 L 195.66,124.11 L 195.96,124.61 L 196.12,124.83 L 196.49,125.04 L 196.68,125.12 L 197.12,125.06 L 197.34,125.00 L 197.82,124.70 L 198.31,124.33 L 199.33,122.88 L 199.84,122.04 L 200.81,119.75 L 201.34,118.31 L 202.39,115.07 L 202.64,114.29 L 203.04,112.88 L 203.47,111.17 L 204.19,107.85 M 213.69,116.00 L 213.68,116.32 L 213.73,116.52 L 214.11,117.17 L 214.35,117.54 L 215.08,118.45 L 216.50,120.00 L 217.02,120.53 L 217.92,121.42 L 218.35,121.84 L 219.10,122.51 L 219.81,123.13 L 220.80,123.74 L 221.23,123.95 L 221.72,123.76 L 221.91,123.57 L 222.00,122.62 L 222.00,122.42 L 221.73,121.88 L 221.56,121.60 L 221.00,120.92 L 220.39,120.23 L 218.66,118.72 L 217.76,117.99 L 215.95,116.81 L 215.52,116.56 L 214.77,116.22 L 213.86,116.00 M 184.42,120.32 L 184.24,120.50 L 184.12,121.20 L 184.41,122.62 L 184.53,122.95 L 184.78,123.38 L 184.91,123.57 L 185.17,123.72 L 185.32,123.76 L 185.64,123.64 L 186.23,123.17 L 186.68,122.72 L 186.90,122.00 L 186.89,121.63 L 186.22,120.82 L 185.83,120.43 L 185.17,120.14 L 184.86,120.07 M 195.61,109.15 L 195.05,109.50 L 194.80,109.70 L 194.50,110.27 L 194.60,111.16 L 194.81,111.50 L 195.34,111.66 L 196.30,111.10 L 196.59,110.81 L 196.87,110.17 L 196.95,109.86 L 196.75,109.42 L 196.51,109.18 L 195.91,109.12 M 186.14,92.40 L 185.55,92.67 L 185.26,92.85 L 184.68,93.48 L 183.75,94.85 L 183.27,95.67 L 182.51,97.26 L 182.35,97.62 L 182.14,98.23 L 182.00,98.88 L 182.00,99.14 L 182.31,99.72 L 182.52,100.01 L 183.19,100.63 L 183.93,101.25 L 186.21,102.47 L 187.43,103.06 L 190.26,104.02 L 194.54,104.90 L 194.68,104.91 L 195.25,104.78 L 195.58,104.69 L 196.44,104.38 L 197.34,104.03 L 199.54,102.99 L 200.35,102.58 L 201.79,101.67 L 202.47,101.21 L 203.63,100.26 L 204.17,99.78 L 205.01,98.85 L 205.38,98.39 L 205.88,97.54 L 206.07,97.13 L 206.18,96.44 L 206.19,96.12 L 205.88,95.66 L 205.67,95.46 L 204.92,95.28 L 203.25,95.42 L 202.66,95.54 L 200.77,95.49 L 199.73,95.41 L 197.11,94.99 L 195.73,94.74 L 192.58,93.99 L 187.50,92.53 L 187.12,92.41 L 186.46,92.37 Z" fill="#000000"/>
<path d="M 205.10,102.06 L 204.62,101.77 L 204.30,101.02 L 204.76,99.46 L 204.99,99.05 L 205.33,98.55 L 205.48,98.35 L 205.72,98.30 L 205.83,98.33 L 206.06,98.74 L 206.47,99.91 L 206.68,100.58 L 206.87,101.53 L 206.92,101.94 L 206.79,102.41 L 206.68,102.58 L 206.20,102.58 L 205.93,102.52 Z" fill="#000000"/>
</g>
</svg>